<mxfile host="app.diagrams.net" modified="2023-11-01T17:26:05.964Z" agent="Mozilla/5.0 (Windows NT 10.0; Win64; x64; rv:109.0) Gecko/20100101 Firefox/119.0" etag="S3jesdJW9bX6tUssXKAy" version="22.0.8" type="device">
  <diagram name="Page-1" id="R7s6xCUYPcDgzsnBZri8">
    <mxGraphModel dx="1194" dy="786" grid="1" gridSize="10" guides="1" tooltips="1" connect="1" arrows="1" fold="1" page="1" pageScale="1" pageWidth="827" pageHeight="1169" math="0" shadow="0">
      <root>
        <mxCell id="0" />
        <mxCell id="1" parent="0" />
        <mxCell id="3-MmPayVCdj3wP6HPLZZ-1" value="&lt;div&gt;Usuario no registrado&lt;/div&gt;&lt;div&gt;&lt;br&gt;&lt;/div&gt;" style="shape=umlActor;verticalLabelPosition=bottom;verticalAlign=top;html=1;outlineConnect=0;" vertex="1" parent="1">
          <mxGeometry x="70" y="110" width="120" height="280" as="geometry" />
        </mxCell>
        <mxCell id="3-MmPayVCdj3wP6HPLZZ-3" value="" style="whiteSpace=wrap;html=1;aspect=fixed;" vertex="1" parent="1">
          <mxGeometry x="290" y="60" width="340" height="340" as="geometry" />
        </mxCell>
        <mxCell id="3-MmPayVCdj3wP6HPLZZ-4" value="Sistema" style="text;html=1;strokeColor=none;fillColor=none;align=center;verticalAlign=middle;whiteSpace=wrap;rounded=0;" vertex="1" parent="1">
          <mxGeometry x="430" y="80" width="60" height="30" as="geometry" />
        </mxCell>
        <mxCell id="3-MmPayVCdj3wP6HPLZZ-5" value="Consultar las estadísticas generales" style="ellipse;whiteSpace=wrap;html=1;aspect=fixed;" vertex="1" parent="1">
          <mxGeometry x="330" y="260" width="100" height="100" as="geometry" />
        </mxCell>
        <mxCell id="3-MmPayVCdj3wP6HPLZZ-6" value="" style="endArrow=none;html=1;rounded=0;exitX=0.75;exitY=0.1;exitDx=0;exitDy=0;exitPerimeter=0;" edge="1" parent="1" source="3-MmPayVCdj3wP6HPLZZ-1" target="3-MmPayVCdj3wP6HPLZZ-5">
          <mxGeometry width="50" height="50" relative="1" as="geometry">
            <mxPoint x="390" y="370" as="sourcePoint" />
            <mxPoint x="440" y="320" as="targetPoint" />
          </mxGeometry>
        </mxCell>
        <mxCell id="3-MmPayVCdj3wP6HPLZZ-9" value="&lt;div&gt;Usuario registrado&lt;/div&gt;" style="shape=umlActor;verticalLabelPosition=bottom;verticalAlign=top;html=1;outlineConnect=0;" vertex="1" parent="1">
          <mxGeometry x="690" y="90" width="120" height="280" as="geometry" />
        </mxCell>
        <mxCell id="3-MmPayVCdj3wP6HPLZZ-10" value="Consultar mis estadísticas" style="ellipse;whiteSpace=wrap;html=1;aspect=fixed;" vertex="1" parent="1">
          <mxGeometry x="490" y="140" width="100" height="100" as="geometry" />
        </mxCell>
        <mxCell id="3-MmPayVCdj3wP6HPLZZ-11" value="" style="endArrow=none;html=1;rounded=0;exitX=0.25;exitY=0.1;exitDx=0;exitDy=0;exitPerimeter=0;entryX=0.97;entryY=0.29;entryDx=0;entryDy=0;entryPerimeter=0;" edge="1" parent="1" source="3-MmPayVCdj3wP6HPLZZ-9" target="3-MmPayVCdj3wP6HPLZZ-10">
          <mxGeometry width="50" height="50" relative="1" as="geometry">
            <mxPoint x="170" y="148" as="sourcePoint" />
            <mxPoint x="351" y="289" as="targetPoint" />
          </mxGeometry>
        </mxCell>
      </root>
    </mxGraphModel>
  </diagram>
</mxfile>
